<?xml version="1.0" encoding="UTF-8" standalone="no"?>
<!-- Generator: Adobe Illustrator 17.1.0, SVG Export Plug-In . SVG Version: 6.00 Build 0)  -->

<svg
   xmlns:dc="http://purl.org/dc/elements/1.1/"
   xmlns:cc="http://creativecommons.org/ns#"
   xmlns:rdf="http://www.w3.org/1999/02/22-rdf-syntax-ns#"
   xmlns:svg="http://www.w3.org/2000/svg"
   xmlns="http://www.w3.org/2000/svg"
   xmlns:sodipodi="http://sodipodi.sourceforge.net/DTD/sodipodi-0.dtd"
   xmlns:inkscape="http://www.inkscape.org/namespaces/inkscape"
   version="1.1"
   id="Ebene_1"
   x="0px"
   y="0px"
   viewBox="0 0 841.89 595.28"
   enable-background="new 0 0 841.89 595.28"
   xml:space="preserve"
   inkscape:version="0.91 r13725"
   sodipodi:docname="logo.svg"><metadata
     id="metadata27"><rdf:RDF><cc:Work
         rdf:about=""><dc:format>image/svg+xml</dc:format><dc:type
           rdf:resource="http://purl.org/dc/dcmitype/StillImage" /><dc:title></dc:title></cc:Work></rdf:RDF></metadata><defs
     id="defs25" /><sodipodi:namedview
     pagecolor="#2e3336"
     bordercolor="#666666"
     borderopacity="1"
     objecttolerance="10"
     gridtolerance="10"
     guidetolerance="10"
     inkscape:pageopacity="0"
     inkscape:pageshadow="2"
     inkscape:window-width="956"
     inkscape:window-height="1052"
     id="namedview23"
     showgrid="false"
     showborder="true"
     inkscape:zoom="0.39645207"
     inkscape:cx="263.29843"
     inkscape:cy="298.42629"
     inkscape:window-x="0"
     inkscape:window-y="24"
     inkscape:window-maximized="0"
     inkscape:current-layer="Ebene_1" /><path
     style="fill:#1f63e2;fill-opacity:1"
     inkscape:connector-curvature="0"
     id="path5"
     d="m 763.172,248.355 c 0,-17.639 -14.331,-31.956 -31.97,-31.956 -17.652,0 -31.941,14.316 -31.941,31.956 0,17.64 14.289,31.97 31.941,31.97 17.639,0 31.97,-14.331 31.97,-31.97 m -31.97,-85.083 c -46.958,0 -85.076,38.112 -85.09,85.063 l 25.34,0 c 0.006,-32.966 26.762,-59.743 59.75,-59.743 33,0 59.777,26.783 59.777,59.764 0,32.985 -26.762,59.756 -59.75,59.762 l 0,25.34 c 46.978,-0.013 85.063,-38.139 85.063,-85.103 0,-46.964 -38.099,-85.083 -85.09,-85.083" /><rect
     style="fill:#c70c0f;fill-opacity:1"
     id="rect7"
     height="30.641001"
     width="30.641001"
     y="399.31799"
     x="486.91599" /><path
     d="m 51.002,385.567 c 10.951,9.524 25.236,16.19 38.093,16.19 14.522,0 21.664,-5.714 21.664,-14.998 0,-9.763 -8.808,-12.858 -22.38,-18.571 l -19.998,-8.571 c -16.19,-6.429 -31.427,-19.761 -31.427,-42.378 0,-25.713 23.095,-46.188 55.235,-46.188 17.856,0 36.664,7.142 49.996,20.475 l -17.617,22.142 c -10.239,-7.858 -20,-12.381 -32.38,-12.381 -11.905,0 -19.761,5.239 -19.761,14.047 0,9.524 10.237,12.856 23.808,18.332 l 19.761,8.095 c 18.808,7.619 30.712,20.237 30.712,42.141 0,25.713 -21.427,48.093 -58.33,48.093 -20.236,0 -41.664,-7.619 -57.615,-22.38 l 20.239,-24.048 z"
     id="path11"
     inkscape:connector-curvature="0"
     style="fill:#ffffff;fill-opacity:1" /><path
     d="m 183.378,332.103 -32.983,0 0,-27.615 98.952,0 0,27.615 -32.985,0 0,97.034 -32.983,0 0,-97.034 z"
     id="path13"
     inkscape:connector-curvature="0"
     style="fill:#ffffff;fill-opacity:1" /><path
     d="m 261.155,304.487 32.983,0 0,68.269 c 0,22.246 5.754,30.3 18.794,30.3 13.04,0 19.177,-8.055 19.177,-30.3 l 0,-68.269 31.834,0 0,64.435 c 0,42.572 -16.109,62.515 -51.01,62.515 -34.901,0 -51.777,-19.943 -51.777,-62.515 l 0,-64.435 z"
     id="path15"
     inkscape:connector-curvature="0"
     style="fill:#ffffff;fill-opacity:1" /><path
     d="m 379.122,304.487 36.819,0 c 37.97,0 64.05,17.643 64.05,61.75 0,44.105 -26.08,62.899 -62.132,62.899 l -38.737,0 0,-124.649 z m 34.901,98.185 c 18.027,0 32.218,-7.286 32.218,-36.435 0,-29.149 -14.191,-35.286 -32.218,-35.286 l -1.916,0 0,71.721 1.916,0 z"
     id="path17"
     inkscape:connector-curvature="0"
     style="fill:#ffffff;fill-opacity:1" /><path
     d="m 532.55,273.906 35.236,0 0,155.23 -35.236,0 0,-155.23 z"
     id="path19"
     inkscape:connector-curvature="0"
     style="fill:#ffffff;fill-opacity:1" /><path
     d="m 584.444,273.906 56.663,0 c 33.808,0 60.712,12.381 60.712,49.998 0,36.427 -27.856,52.615 -60.712,52.615 l -21.427,0 0,52.617 -35.235,0 0,-155.23 z m 54.52,74.759 c 19.285,0 28.569,-8.571 28.569,-24.761 0,-16.19 -9.998,-22.142 -28.569,-22.142 l -19.285,0 0,46.903 19.285,0 z"
     id="path21"
     inkscape:connector-curvature="0"
     style="fill:#ffffff;fill-opacity:1" /><path
     inkscape:connector-curvature="0"
     id="path3364"
     style="font-style:normal;font-variant:normal;font-weight:300;font-stretch:normal;font-size:180px;line-height:125%;font-family:'DIN Light';-inkscape-font-specification:'DIN Light, Light';letter-spacing:0px;word-spacing:0px;fill:#ffffff;fill-opacity:1;stroke:none;stroke-width:1px;stroke-linecap:butt;stroke-linejoin:miter;stroke-opacity:1"
     d="m 269.77462,512.63732 0,-75.05238 -8.07337,0 0,73.40781 c 0,17.04377 -8.37237,26.76171 -23.62206,26.76171 -9.41893,0 -13.75462,-3.43866 -17.79131,-7.47534 l -5.53175,5.53175 c 6.12978,6.12978 13.75463,9.11991 23.32306,9.11991 19.28637,0 31.69543,-12.85758 31.69543,-32.29346 z" /><path
     inkscape:connector-curvature="0"
     id="path3366"
     style="font-style:normal;font-variant:normal;font-weight:300;font-stretch:normal;font-size:180px;line-height:125%;font-family:'DIN Light';-inkscape-font-specification:'DIN Light, Light';letter-spacing:0px;word-spacing:0px;fill:#ffffff;fill-opacity:1;stroke:none;stroke-width:1px;stroke-linecap:butt;stroke-linejoin:miter;stroke-opacity:1"
     d="m 363.67187,515.47795 c 0,-8.52188 -3.43866,-15.84771 -9.26942,-20.63193 -4.4852,-3.73767 -8.9704,-5.53175 -18.98736,-7.02682 l -11.51202,-1.79408 c -5.98027,-0.89704 -12.11004,-3.43865 -15.84771,-6.57829 -3.73767,-3.13965 -5.53175,-7.77435 -5.53175,-13.90413 0,-13.45561 9.26942,-21.97749 24.66861,-21.97749 12.70808,0 19.28637,4.03668 25.86467,9.86744 l 5.23274,-5.23273 c -9.11992,-7.92386 -17.49229,-11.51202 -30.64889,-11.51202 -20.33292,0 -33.04099,11.36251 -33.04099,29.15381 0,8.22287 2.69112,14.80117 8.37238,19.58539 4.4852,3.88717 10.91399,6.57829 18.98736,7.77435 l 12.40906,1.94359 c 8.67139,1.34556 11.51202,2.3921 15.39919,5.68125 3.88718,3.43866 5.83076,8.67139 5.83076,14.95068 0,13.90412 -10.61497,21.97749 -27.35973,21.97749 -12.85758,0 -20.63193,-2.99014 -30.20036,-12.55857 l -5.68126,5.68126 c 9.71794,9.71794 19.58538,14.05363 35.4331,14.05363 22.127,0 35.88162,-11.51202 35.88162,-29.45283 z" /><path
     inkscape:connector-curvature="0"
     id="path3368"
     style="font-style:normal;font-variant:normal;font-weight:300;font-stretch:normal;font-size:180px;line-height:125%;font-family:'DIN Light';-inkscape-font-specification:'DIN Light, Light';letter-spacing:0px;word-spacing:0px;fill:#ffffff;fill-opacity:1;stroke:none;stroke-width:1px;stroke-linecap:butt;stroke-linejoin:miter;stroke-opacity:1"
     d="m 457.84477,490.80934 c 0,-24.07059 -0.14951,-33.48951 -9.86745,-43.20745 -7.02682,-7.02682 -16.59525,-10.91399 -26.6122,-10.91399 -10.01695,0 -19.58538,3.88717 -26.6122,10.91399 -9.71794,9.71794 -9.86745,19.13686 -9.86745,43.20745 0,24.07059 0.14951,33.48951 9.86745,43.20745 7.02682,7.02682 16.59525,10.91399 26.6122,10.91399 10.01695,0 19.58538,-3.88717 26.6122,-10.91399 9.71794,-9.71794 9.86745,-19.13686 9.86745,-43.20745 z m -8.07337,0 c 0,22.87453 -0.59802,31.0974 -8.22287,38.72225 -5.38224,5.38224 -12.55857,8.22287 -20.18341,8.22287 -7.62484,0 -14.80117,-2.84063 -20.18341,-8.22287 -7.62485,-7.62485 -8.22287,-15.84772 -8.22287,-38.72225 0,-22.87453 0.59802,-31.0974 8.22287,-38.72225 5.38224,-5.38224 12.55857,-8.22287 20.18341,-8.22287 7.62484,0 14.80117,2.84063 20.18341,8.22287 7.62485,7.62485 8.22287,15.84772 8.22287,38.72225 z" /><path
     inkscape:connector-curvature="0"
     id="path3370"
     style="font-style:normal;font-variant:normal;font-weight:300;font-stretch:normal;font-size:180px;line-height:125%;font-family:'DIN Light';-inkscape-font-specification:'DIN Light, Light';letter-spacing:0px;word-spacing:0px;fill:#ffffff;fill-opacity:1;stroke:none;stroke-width:1px;stroke-linecap:butt;stroke-linejoin:miter;stroke-opacity:1"
     d="m 564.19546,544.03374 0,-106.4488 -8.07336,0 0,92.24566 -61.44727,-92.24566 -8.07337,0 0,106.4488 8.07337,0 0,-92.54468 61.44727,92.54468 8.07336,0 z" /><path
     inkscape:connector-curvature="0"
     id="path3372"
     style="font-style:normal;font-variant:normal;font-weight:300;font-stretch:normal;font-size:180px;line-height:125%;font-family:'DIN Light';-inkscape-font-specification:'DIN Light, Light';letter-spacing:0px;word-spacing:0px;fill:#ffffff;fill-opacity:1;stroke:none;stroke-width:1px;stroke-linecap:butt;stroke-linejoin:miter;stroke-opacity:1"
     d="m 595.98657,479.38764 0,-11.0635 -11.06349,0 0,11.0635 11.06349,0 z m 0,46.6461 0,-11.0635 -11.06349,0 0,11.0635 11.06349,0 z" /><path
     inkscape:connector-curvature="0"
     id="path3374"
     style="font-style:normal;font-variant:normal;font-weight:300;font-stretch:normal;font-size:180px;line-height:125%;font-family:'DIN Light';-inkscape-font-specification:'DIN Light, Light';letter-spacing:0px;word-spacing:0px;fill:#ffffff;fill-opacity:1;stroke:none;stroke-width:1px;stroke-linecap:butt;stroke-linejoin:miter;stroke-opacity:1"
     d="m 696.09502,544.03374 -39.17077,-106.4488 -7.17633,0 -39.17076,106.4488 8.67139,0 9.26942,-25.86467 49.63624,0 9.26942,25.86467 8.67139,0 z m -20.48243,-33.04099 -44.55301,0 22.27651,-62.64333 22.2765,62.64333 z" /><path
     inkscape:connector-curvature="0"
     id="path3376"
     style="font-style:normal;font-variant:normal;font-weight:300;font-stretch:normal;font-size:180px;line-height:125%;font-family:'DIN Light';-inkscape-font-specification:'DIN Light, Light';letter-spacing:0px;word-spacing:0px;fill:#ffffff;fill-opacity:1;stroke:none;stroke-width:1px;stroke-linecap:butt;stroke-linejoin:miter;stroke-opacity:1"
     d="m 785.88316,468.23382 c 0,-19.43588 -13.75462,-30.64888 -32.14395,-30.64888 l -39.02126,0 0,106.4488 8.07337,0 0,-45.15104 30.94789,0 c 18.38933,0 32.14395,-11.213 32.14395,-30.64888 z m -8.07337,0 c 0,15.99722 -10.31596,23.47256 -24.96762,23.47256 l -30.05085,0 0,-46.94512 30.05085,0 c 14.65166,0 24.96762,7.47534 24.96762,23.47256 z" /><path
     inkscape:connector-curvature="0"
     id="path3378"
     style="font-style:normal;font-variant:normal;font-weight:300;font-stretch:normal;font-size:180px;line-height:125%;font-family:'DIN Light';-inkscape-font-specification:'DIN Light, Light';letter-spacing:0px;word-spacing:0px;fill:#ffffff;fill-opacity:1;stroke:none;stroke-width:1px;stroke-linecap:butt;stroke-linejoin:miter;stroke-opacity:1"
     d="m 817.10905,544.03374 0,-106.4488 -8.07336,0 0,106.4488 8.07336,0 z" /></svg>